<?xml version="1.0" encoding="UTF-8"?>
<svg id="Capa_1" xmlns="http://www.w3.org/2000/svg" viewBox="0 0 799.91 800.02">
  <defs>
    <style>
      .cls-1 {
        fill: #503ce1;
      }
    </style>
  </defs>
  <path class="cls-1" d="M727.09,326.98h-254.35V72.84c0-40.23-32.46-72.84-72.68-72.84s-72.67,32.62-72.67,72.86v254.3H72.91C32.69,327.16-.02,359.77,0,400.02c-.02,20.1,8.11,38.54,21.27,51.7,13.18,13.2,31.36,21.53,51.45,21.53h254.67v253.94c0,20.12,7.98,38.34,21.16,51.49,13.18,13.18,31.31,21.34,51.43,21.34,40.21,0,72.75-32.62,72.75-72.82v-253.96h254.35c40.23,0,72.84-32.9,72.82-73.12-.02-40.21-32.63-73.12-72.83-73.12Z"/>
</svg>