<?xml version="1.0" encoding="UTF-8"?>
<svg id="_レイヤー_2" data-name="レイヤー 2" xmlns="http://www.w3.org/2000/svg" viewBox="0 0 467.88 149.87">
  <defs>
    <style>
      .cls-1 {
        fill: #002b5f;
      }

      .cls-1, .cls-2 {
        stroke-width: 0px;
      }

      .cls-2 {
        fill: #3d98bf;
      }
    </style>
  </defs>
  <path class="cls-2" d="M13,29.83h29.86c6.37,0,11.56,1.73,15.59,5.19,4.84,3.93,7.37,9.54,7.57,16.83-.14,10.71-5.06,18-14.76,21.86l25.57,52.29-11.02,3.67-26.43-54.66h-14.82l.86,54.66h-11.02l-1.41-99.84ZM24.57,64.41h17.55c4.35-.07,7.6-1.37,9.77-3.9,2.14-2.35,3.21-5.25,3.21-8.68-.07-4.12-1.35-7.11-3.84-8.95-1.96-1.63-4.8-2.44-8.51-2.44h-18.18v23.98Z"/>
  <path class="cls-2" d="M79.61,70.92h10.92v33.48c0,3.79,1.03,6.76,3.09,8.89,2.03,2.13,4.61,3.19,7.76,3.19s10.18-3.04,12.17-5.17c2.03-2.13,3.67-3.55,3.67-7.34v-33.05h14.69v55.08h-11.02v-7.34l-3.67,3.67c-3.6,4.44-13.59,5.41-19.39,5.41-4.5-.07-8.57-1.76-12.2-5.08-3.94-3.24-5.95-8.03-6.02-14.36v-37.38Z"/>
  <path class="cls-2" d="M139.13,48.19h10.92v64.45c0,2.56,1.37,3.84,4.1,3.84l7.14-1.5-3.35,12.1h-4.87c-3.98,0-7.26-1.03-9.85-3.07-2.73-2.08-4.09-5.59-4.09-10.51V48.19Z"/>
  <path class="cls-2" d="M175.92,103.27c0,4.51,1.26,7.94,3.78,10.29,2.34,2.38,5.42,3.58,9.23,3.58,4.44,0,8.41-1.83,11.9-5.47l7.92,6.99c-5.55,6.13-12.09,9.16-19.6,9.09-2.87,0-5.66-.43-8.38-1.3-1.36-.47-2.69-1.1-3.98-1.89-1.36-.68-2.64-1.53-3.82-2.55-2.31-2.09-4.17-5.01-5.61-8.76-1.57-3.61-2.36-8.3-2.36-14.07s.68-10.17,2.04-13.85c1.36-3.75,3.11-6.71,5.24-8.87,2.16-2.2,4.59-3.79,7.28-4.76,2.65-.97,5.27-1.46,7.86-1.46,6.22.07,11.47,2.18,15.77,6.33,4.37,4.22,6.58,10.03,6.66,17.43v9.3h-33.93ZM198.93,93.98c-.14-4.39-1.28-7.7-3.41-9.95-2.1-2.14-4.8-3.21-8.09-3.21s-5.99,1.07-8.09,3.21c-2.07,2.25-3.2,5.57-3.41,9.95h23.01Z"/>
  <path class="cls-2" d="M250.65,29.83h10.9l21.91,51.42,21.49-51.42h10.94l-.39,99.84h-11.02l-.16-70.15h-.26l-15.99,37.89h-9.65l-15.99-37.89h-.21l-1.79,70.15h-11.02l1.24-99.84Z"/>
  <path class="cls-2" d="M362.23,122.11h-.21c-1.01,1.91-2.58,3.32-4.71,4.22-2.1.94-5,1.41-8.7,1.41-6.08-.07-10.76-1.73-14.04-4.98-3.46-3.17-5.19-7.23-5.19-12.17s1.5-8.64,4.5-11.74c3-3.17,7.4-4.8,13.2-4.87h15.14v-5.93c.07-4.97-3.65-7.38-11.16-7.23-2.73,0-4.88.29-6.45.87-1.64.69-2.93,1.85-3.88,3.48l-8.6-6.77c4.15-5.6,10.28-8.32,18.38-8.18,6.84-.07,12.3,1.26,16.39,4.01,4.08,2.81,6.16,7.65,6.23,14.5v38.36h-10.92v-4.98ZM362.23,103.27h-13.12c-6.37.14-9.52,2.4-9.45,6.77,0,1.91.82,3.54,2.47,4.87,1.58,1.48,4.18,2.22,7.82,2.22,4.58.07,7.82-.49,9.71-1.68,1.72-1.19,2.57-3.9,2.57-8.13v-4.06Z"/>
  <path class="cls-2" d="M389.72,53.82h10.92v17.1h7.97v8.65h-7.97v32.75c-.08,2.85,1.22,4.24,3.88,4.17h4.09v10.6h-5.71c-3.84,0-6.97-1.23-9.42-3.68-2.51-2.35-3.77-5.73-3.77-10.16v-33.68h-5.48v-8.65h5.48v-17.1Z"/>
  <path class="cls-2" d="M428.07,103.27c0,4.51,1.26,7.94,3.78,10.29,2.34,2.38,5.42,3.58,9.23,3.58,4.44,0,8.41-1.83,11.9-5.47l7.92,6.99c-5.55,6.13-12.09,9.16-19.6,9.09-2.87,0-5.66-.43-8.38-1.3-1.36-.47-2.69-1.1-3.98-1.89-1.36-.68-2.64-1.53-3.82-2.55-2.31-2.09-4.17-5.01-5.61-8.76-1.57-3.61-2.36-8.3-2.36-14.07s.68-10.17,2.04-13.85c1.36-3.75,3.11-6.71,5.24-8.87,2.16-2.2,4.59-3.79,7.28-4.76,2.65-.97,5.27-1.46,7.86-1.46,6.22.07,11.47,2.18,15.77,6.33,4.37,4.22,6.58,10.03,6.66,17.43v9.3h-33.93ZM451.08,93.98c-.14-4.39-1.28-7.7-3.41-9.95-2.1-2.14-4.8-3.21-8.09-3.21s-5.99,1.07-8.09,3.21c-2.07,2.25-3.2,5.57-3.41,9.95h23.01Z"/>
  <circle class="cls-1" cx="98.87" cy="85.61" r="3.67"/>
  <circle class="cls-1" cx="109.88" cy="85.61" r="3.67"/>
  <circle class="cls-1" cx="275.12" cy="111.31" r="3.67"/>
  <circle class="cls-1" cx="289.8" cy="111.31" r="3.67"/>
</svg>